<svg width="362" height="477" viewBox="0 0 362 477" fill="none" xmlns="http://www.w3.org/2000/svg">
<path d="M362 1C358.149 3.90309 354.726 7.31482 351.116 10.8958C348.062 13.9247 345.117 14.0234 342.045 17.1265C338.512 20.6959 334.889 24.1874 331.161 27.7554C329.712 29.1418 325.26 33.6259 324.61 35.6354C322.926 40.8409 319.142 39.8206 316.85 42.5991C311.545 49.0295 303.006 48.9413 298.306 56.7099C297.161 58.602 293.238 59.5195 293.065 62.0243C292.832 65.4114 290.643 65.6951 289.639 67.3387C286.251 72.8824 283.236 82.1064 279.46 86.3974C272.334 94.4955 268.666 114.267 265.149 126.347C263.307 132.672 262.021 138.271 260.21 144.49C258.45 150.535 255.425 157.25 254.97 164.281C254.863 165.936 251.137 173.43 250.435 175.46C249.692 177.605 249.132 178.378 248.217 180.041C247.392 181.543 248.215 184.077 247.512 185.356C244.548 190.745 240.86 198.184 238.845 205.514C235.855 216.387 227.259 224.243 221.41 228.971C219.926 230.17 216.489 231.448 215.766 233.552C215.028 235.697 211.009 238.5 209.618 238.5C207.153 238.5 205.526 241.571 203.269 241.799C200.619 242.066 198.354 241.659 195.811 243.081C190.653 245.967 184.142 246.205 178.779 246.747C176.209 247.006 169.8 248.263 167.693 251.328C166.213 253.48 161.684 251.508 159.731 251.694C156.596 251.995 153.104 255.211 149.955 256.276C144.278 258.196 135.945 261.186 131.613 268.187C129.016 272.386 123.727 276.683 120.326 278.45C118.191 279.559 117.778 282.232 116.093 283.764C114.744 284.991 113.465 284.161 112.364 285.963C108.684 291.986 104.578 293.932 101.681 301.54C98.2946 310.434 92.659 317.564 89.6879 325.913C86.9703 333.55 82.6417 339.993 80.6175 347.354C80.0013 349.595 77.9551 354.932 76.9894 356.883C75.6146 359.661 74.5582 364.603 73.3612 366.779C70.7311 371.562 67.8473 377.655 66.105 383.639C62.175 397.137 55.6251 408.537 50.8869 421.206C48.0653 428.752 43.02 434.34 40.708 442.281C40.4933 443.018 36.0263 449.498 35.4673 449.611C33.4457 450.02 31.3281 456.678 29.8236 459.14C28.223 461.76 23.0097 466.104 20.9548 466.104C18.3544 466.104 16.4015 469.254 13.6985 469.403C9.86944 469.614 4.99793 474.678 1.00002 476" stroke="#454754" stroke-linecap="round" stroke-dasharray="8 8"/>
</svg>
